<svg xmlns="http://www.w3.org/2000/svg" viewBox="0 0 300 100" width="300" height="100">
  <!-- Ship Hull -->
  <path d="M50,70 C80,80 220,80 250,70 L260,80 C220,95 80,95 40,80 Z" fill="#2a9d8f"/>
  
  <!-- Ship Deck -->
  <path d="M60,65 L240,65 L250,70 C220,80 80,80 50,70 Z" fill="#e9c46a"/>
  
  <!-- Ship Mast -->
  <rect x="145" y="20" width="10" height="45" fill="#0d1b2a"/>
  
  <!-- Ship Sail -->
  <path d="M155,20 C190,30 190,50 155,65 Z" fill="#f4a261"/>
  
  <!-- Jolly Roger Flag -->
  <rect x="125" y="20" width="20" height="15" fill="#0d1b2a"/>
  <circle cx="135" cy="27" r="5" fill="#ffffff"/>
  <path d="M130,32 L140,32" stroke="#ffffff" stroke-width="2"/>
  
  <!-- Waves -->
  <path d="M10,80 C30,75 50,85 70,80 C90,75 110,85 130,80 C150,75 170,85 190,80 C210,75 230,85 250,80 C270,75 290,85 310,80" fill="none" stroke="#1a3a5f" stroke-width="3"/>
  
  <!-- Text -->
  <text x="150" y="50" font-family="'Pirata One', cursive" font-size="24" fill="#0d1b2a" text-anchor="middle">HACKBOAT</text>
  <text x="150" y="95" font-family="'Roboto', sans-serif" font-size="14" fill="#0d1b2a" text-anchor="middle">2025</text>
  
  <!-- Computer/Hacker Elements -->
  <rect x="90" y="40" width="20" height="15" rx="2" fill="#1a3a5f"/>
  <rect x="92" y="42" width="16" height="9" fill="#2a9d8f"/>
  <rect x="190" y="40" width="20" height="15" rx="2" fill="#1a3a5f"/>
  <rect x="192" y="42" width="16" height="9" fill="#2a9d8f"/>
</svg>